<?xml version="1.0" encoding="utf-8"?>
<!-- Generator: Adobe Illustrator 26.3.1, SVG Export Plug-In . SVG Version: 6.00 Build 0)  -->
<svg version="1.1" id="Livello_1" xmlns="http://www.w3.org/2000/svg" xmlns:xlink="http://www.w3.org/1999/xlink" x="0px" y="0px"
	 viewBox="0 0 72 48" style="enable-background:new 0 0 72 48;" xml:space="preserve">
<style type="text/css">
	.st0{fill:#0066CC;}
</style>
<path class="st0" d="M50.7,14.4v6.1h-4.4V0h8.1c2.6,0,3.9,0.7,4,2.1v10c0,1.4-1.3,2.1-3.8,2.1h-3.8L50.7,14.4L50.7,14.4L50.7,14.4z
	 M54,2.4h-3.3v9.5H54C54,11.8,54,2.4,54,2.4z"/>
<path class="st0" d="M3.7,20.5v6.1H0V6.1h6.8c2.2,0,3.3,0.7,3.3,2.1v10c0,1.4-1.1,2.1-3.2,2.1H3.7V20.5z M6.5,8.5H3.7V18h2.8
	C6.5,17.9,6.5,8.5,6.5,8.5z"/>
<path class="st0" d="M21.5,20.3h-7c-2.1,0-3.1-0.7-3.1-2.1V14c0-1.4,1.1-2.1,3.2-2.1h3.2V8.4H15v1.9h-3.6V8.2c0-1.4,1.1-2.1,3.2-2.1
	h3.6c2.1,0,3.2,0.7,3.2,2.1L21.5,20.3L21.5,20.3z M15.1,17.9h2.8v-3.7h-2.8C15.1,14.2,15.1,17.9,15.1,17.9z"/>
<path class="st0" d="M29.6,20.3h-3.2c-2.1,0-3.2-0.7-3.2-2.1v-10c0-1.4,1.1-2.1,3.3-2.1h6.8v18.3c0,1.4-1.1,2.1-3.2,2.1h-3.7
	c-2.1,0-3.2-0.7-3.2-2.1v-2.1h3.7v1.9h2.8v-3.7L29.6,20.3L29.6,20.3z M26.8,17.9h2.8V8.5h-2.8V17.9z"/>
<path class="st0" d="M44.7,18.2c0,1.4-1.1,2.1-3.3,2.1h-3.6c-2.2,0-3.2-0.7-3.2-2.1v-10c0-1.4,1.1-2.1,3.2-2.1h3.7
	c2.1,0,3.2,0.7,3.2,2.1L44.7,18.2C44.6,18.2,44.7,18.2,44.7,18.2z M41,8.5h-2.8V18H41C41,17.9,41,8.5,41,8.5z"/>
<path class="st0" d="M72,2.2c0-1.4-1.3-2.1-3.8-2.1h-4.4c-2.6,0-3.9,0.7-3.9,2.1v18.3h4.4v-6.2h3.3v5.2c0,13.4-10.7,24.2-24,24.2
	c-7.7,0-14.6-3.7-19-9.3l2.2-1.7l-8.8-6l0.4,12.6l2.8-2.3c5.2,6.7,13.3,11,22.4,11C59.3,48,72,35.2,72,19.4V2.2L72,2.2z M67.6,11.9
	h-3.3V2.5h3.3V11.9z"/>
</svg>
